<svg width="70" height="70" viewBox="0 0 70 70" fill="none" xmlns="http://www.w3.org/2000/svg">
<path d="M12.75 41V29.3636H20.9318V31.9091H15.9091V33.9091H20.4318V36.4545H15.9091V41H12.75ZM25.2528 29.3636V41H22.0938V29.3636H25.2528ZM26.4318 31.9091V29.3636H36.5455V31.9091H33.0455V41H29.9318V31.9091H26.4318ZM38.9375 41.1818C38.4981 41.1818 38.1212 41.0284 37.8068 40.7216C37.4962 40.411 37.3428 40.0341 37.3466 39.5909C37.3428 39.1591 37.4962 38.7898 37.8068 38.483C38.1212 38.1761 38.4981 38.0227 38.9375 38.0227C39.3542 38.0227 39.7216 38.1761 40.0398 38.483C40.3617 38.7898 40.5246 39.1591 40.5284 39.5909C40.5246 39.8864 40.447 40.1553 40.2955 40.3977C40.1477 40.6364 39.9545 40.8277 39.7159 40.9716C39.4773 41.1117 39.2178 41.1818 38.9375 41.1818ZM45.2102 41H41.8011L45.642 29.3636H49.9602L53.8011 41H50.392L47.8466 32.5682H47.7557L45.2102 41ZM44.5739 36.4091H50.983V38.7727H44.5739V36.4091ZM58.081 29.3636V41H54.9219V29.3636H58.081Z" fill="white"/>
</svg>
