<svg width="71" height="70" viewBox="0 0 71 70" fill="none" xmlns="http://www.w3.org/2000/svg">
<path d="M1.125 44V26.5455H13.3977V30.3636H5.86364V33.3636H12.6477V37.1818H5.86364V44H1.125ZM19.8793 26.5455V44H15.1406V26.5455H19.8793ZM21.6477 30.3636V26.5455H36.8182V30.3636H31.5682V44H26.8977V30.3636H21.6477ZM40.4062 44.2727C39.7472 44.2727 39.1818 44.0426 38.7102 43.5824C38.2443 43.1165 38.0142 42.5511 38.0199 41.8864C38.0142 41.2386 38.2443 40.6847 38.7102 40.2244C39.1818 39.7642 39.7472 39.5341 40.4062 39.5341C41.0312 39.5341 41.5824 39.7642 42.0597 40.2244C42.5426 40.6847 42.7869 41.2386 42.7926 41.8864C42.7869 42.3295 42.6705 42.733 42.4432 43.0966C42.2216 43.4545 41.9318 43.7415 41.5739 43.9574C41.2159 44.1676 40.8267 44.2727 40.4062 44.2727ZM49.8153 44H44.7017L50.4631 26.5455H56.9403L62.7017 44H57.5881L53.7699 31.3523H53.6335L49.8153 44ZM48.8608 37.1136H58.4744V40.6591H48.8608V37.1136ZM69.1214 26.5455V44H64.3828V26.5455H69.1214Z" fill="white"/>
</svg>
