<svg width="70" height="70" viewBox="0 0 70 70" fill="none" xmlns="http://www.w3.org/2000/svg">
<path d="M22.2355 22H32.2407V47.6994C32.2285 50.14 31.6139 52.2877 30.3967 54.1426C29.1917 55.9852 27.5241 57.4252 25.3941 58.4624C23.2762 59.4875 20.8357 60 18.0727 60C15.6749 60 13.4839 59.5851 11.4999 58.7553C9.51593 57.9133 7.93359 56.5954 6.75293 54.8015C5.57226 52.9955 4.98801 50.6525 5.00019 47.7726H15.1515C15.188 48.7123 15.3462 49.5055 15.6262 50.1522C15.9183 50.799 16.32 51.2871 16.8312 51.6166C17.3546 51.9338 17.9875 52.0925 18.73 52.0925C19.4846 52.0925 20.1176 51.9277 20.6288 51.5983C21.1522 51.2688 21.5478 50.7807 21.8155 50.1339C22.0833 49.475 22.2233 48.6635 22.2355 47.6994V22Z" fill="white"/>
<path d="M37.0516 59.4875V22H64V30.2004H47.2029V36.6435H62.6124V44.8439H47.2029V51.2871H63.927V59.4875H37.0516Z" fill="white"/>
<rect x="4" y="11" width="62" height="6" rx="2" fill="white"/>
<path d="M4 11H66V13H4V11Z" fill="white"/>
</svg>
