<svg width="271" height="176" viewBox="0 0 271 176" fill="none" xmlns="http://www.w3.org/2000/svg">
<path d="M79.8616 0H126.221V118.776C126.165 130.056 123.317 139.982 117.677 148.554C112.093 157.071 104.367 163.726 94.4971 168.52C84.6837 173.257 73.3757 175.626 60.5732 175.626C49.4626 175.626 39.3108 173.708 30.1178 169.873C20.9248 165.982 13.593 159.891 8.12229 151.6C2.65161 143.253 -0.0555355 132.424 0.000863245 119.114H47.0375C47.2067 123.457 47.9398 127.123 49.237 130.112C50.5906 133.101 52.4517 135.357 54.8205 136.88C57.2456 138.346 60.1784 139.079 63.6187 139.079C67.1154 139.079 70.0482 138.318 72.4169 136.795C74.8421 135.273 76.675 133.017 77.9158 130.027C79.1566 126.982 79.8052 123.231 79.8616 118.776V0Z" fill="white"/>
<path d="M125.714 173.257V0H200.499C213.358 0 224.609 2.34055 234.253 7.02165C243.897 11.7028 251.399 18.4424 256.756 27.2406C262.114 36.0388 264.793 46.5854 264.793 58.8803C264.793 71.2881 262.03 81.7501 256.503 90.2663C251.032 98.7825 243.333 105.212 233.407 109.555C223.538 113.897 212.004 116.069 198.807 116.069H154.139V79.5223H189.332C194.859 79.5223 199.568 78.8455 203.46 77.4919C207.407 76.082 210.425 73.8542 212.512 70.8087C214.655 67.7632 215.726 63.787 215.726 58.8803C215.726 53.9173 214.655 49.8847 212.512 46.7828C210.425 43.6245 207.407 41.3121 203.46 39.8457C199.568 38.323 194.859 37.5616 189.332 37.5616H172.75V173.257H125.714ZM227.232 93.7348L270.546 173.257H219.449L177.149 93.7348H227.232Z" fill="white"/>
<path d="M164.798 29.9478H224.355V87.6437H164.798V29.9478Z" fill="white"/>
</svg>
