<svg width="70" height="70" viewBox="0 0 70 70" fill="none" xmlns="http://www.w3.org/2000/svg">
<path d="M0.696023 36V28.3636H3.30114V29.8153H3.38068C3.53977 29.3381 3.81155 28.9602 4.19602 28.6818C4.58049 28.4034 5.03788 28.2642 5.56818 28.2642C6.10511 28.2642 6.56747 28.4067 6.95526 28.6918C7.34304 28.9735 7.5767 29.348 7.65625 29.8153H7.7358C7.86506 29.348 8.14015 28.9735 8.56108 28.6918C8.98201 28.4067 9.47585 28.2642 10.0426 28.2642C10.7751 28.2642 11.3684 28.4995 11.8224 28.9702C12.2798 29.4408 12.5085 30.0672 12.5085 30.8494V36H9.7642V31.5455C9.7642 31.2107 9.67969 30.9489 9.51065 30.7599C9.34162 30.5677 9.11458 30.4716 8.82955 30.4716C8.54782 30.4716 8.3241 30.5677 8.15838 30.7599C7.99598 30.9489 7.91477 31.2107 7.91477 31.5455V36H5.28977V31.5455C5.28977 31.2107 5.20526 30.9489 5.03622 30.7599C4.86719 30.5677 4.64015 30.4716 4.35511 30.4716C4.16619 30.4716 4.00379 30.5147 3.8679 30.6009C3.73201 30.687 3.62595 30.8113 3.54972 30.9737C3.4768 31.1328 3.44034 31.3234 3.44034 31.5455V36H0.696023ZM15.9899 36.1193C15.5027 36.1193 15.0718 36.0398 14.6973 35.8807C14.3261 35.7183 14.0344 35.473 13.8223 35.1449C13.6101 34.8168 13.5041 34.3991 13.5041 33.892C13.5041 33.4744 13.5753 33.1181 13.7179 32.8232C13.8604 32.5249 14.0592 32.2812 14.3145 32.0923C14.5697 31.9034 14.8663 31.7592 15.2044 31.6598C15.5458 31.5604 15.9136 31.4957 16.3081 31.4659C16.7356 31.4328 17.0787 31.393 17.3372 31.3466C17.599 31.2969 17.7879 31.2289 17.9039 31.1428C18.0199 31.0533 18.0779 30.9356 18.0779 30.7898V30.7699C18.0779 30.571 18.0017 30.4186 17.8493 30.3125C17.6968 30.2064 17.5012 30.1534 17.2626 30.1534C17.0008 30.1534 16.787 30.2114 16.6213 30.3274C16.4589 30.4401 16.3611 30.6141 16.3279 30.8494H13.8024C13.8355 30.3854 13.983 29.9579 14.2449 29.5668C14.51 29.1723 14.8961 28.8575 15.4032 28.6222C15.9103 28.3835 16.5434 28.2642 17.3024 28.2642C17.8493 28.2642 18.3398 28.3288 18.774 28.4581C19.2082 28.584 19.5777 28.7614 19.8826 28.9901C20.1876 29.2154 20.4196 29.4806 20.5787 29.7855C20.7411 30.0871 20.8223 30.4152 20.8223 30.7699V36H18.2569V34.9261H18.1973C18.0448 35.2112 17.8592 35.4415 17.6404 35.6172C17.425 35.7929 17.1781 35.9205 16.8997 36C16.6246 36.0795 16.3213 36.1193 15.9899 36.1193ZM16.8848 34.3892C17.0936 34.3892 17.2891 34.3461 17.4714 34.2599C17.657 34.1738 17.8078 34.0495 17.9238 33.8871C18.0398 33.7247 18.0978 33.5275 18.0978 33.2955V32.6591C18.0249 32.6889 17.947 32.7171 17.8642 32.7436C17.7846 32.7701 17.6984 32.795 17.6056 32.8182C17.5162 32.8414 17.42 32.8629 17.3173 32.8828C17.2179 32.9027 17.1135 32.9209 17.0041 32.9375C16.792 32.9706 16.618 33.0253 16.4821 33.1016C16.3495 33.1745 16.2501 33.2656 16.1838 33.375C16.1208 33.4811 16.0893 33.6004 16.0893 33.733C16.0893 33.9451 16.1639 34.1075 16.313 34.2202C16.4622 34.3329 16.6528 34.3892 16.8848 34.3892ZM22.1335 36V28.3636H24.8778V36H22.1335ZM23.5057 27.5682C23.1345 27.5682 22.8163 27.4455 22.5511 27.2003C22.286 26.955 22.1534 26.66 22.1534 26.3153C22.1534 25.9706 22.286 25.6757 22.5511 25.4304C22.8163 25.1851 23.1345 25.0625 23.5057 25.0625C23.8802 25.0625 24.1984 25.1851 24.4602 25.4304C24.7254 25.6757 24.858 25.9706 24.858 26.3153C24.858 26.66 24.7254 26.955 24.4602 27.2003C24.1984 27.4455 23.8802 27.5682 23.5057 27.5682ZM29.0204 25.8182V36H26.2761V25.8182H29.0204ZM34.9727 28.3636V30.3523H29.9414V28.3636H34.9727ZM30.9158 26.5341H33.6602V33.544C33.6602 33.6501 33.6784 33.7396 33.7148 33.8125C33.7513 33.8821 33.8076 33.9351 33.8839 33.9716C33.9601 34.0047 34.0579 34.0213 34.1772 34.0213C34.2601 34.0213 34.3562 34.0114 34.4656 33.9915C34.5782 33.9716 34.6611 33.955 34.7141 33.9418L35.1119 35.8707C34.9892 35.9072 34.8136 35.9519 34.5849 36.005C34.3595 36.058 34.091 36.0928 33.7795 36.1094C33.1497 36.1425 32.6211 36.0779 32.1935 35.9155C31.766 35.7498 31.4445 35.4896 31.229 35.1349C31.0136 34.7803 30.9092 34.3362 30.9158 33.8026V26.5341ZM39.6895 36.1392C38.8609 36.1392 38.1516 35.9751 37.5616 35.647C36.9717 35.3156 36.5192 34.8549 36.2044 34.2649C35.8895 33.6716 35.7321 32.9839 35.7321 32.2017C35.7321 31.4195 35.8895 30.7334 36.2044 30.1435C36.5192 29.5502 36.9717 29.0895 37.5616 28.7614C38.1516 28.4299 38.8609 28.2642 39.6895 28.2642C40.5181 28.2642 41.2273 28.4299 41.8173 28.7614C42.4073 29.0895 42.8597 29.5502 43.1745 30.1435C43.4894 30.7334 43.6468 31.4195 43.6468 32.2017C43.6468 32.9839 43.4894 33.6716 43.1745 34.2649C42.8597 34.8549 42.4073 35.3156 41.8173 35.647C41.2273 35.9751 40.5181 36.1392 39.6895 36.1392ZM39.7093 34.1108C39.9413 34.1108 40.1419 34.0329 40.3109 33.8771C40.4799 33.7214 40.6109 33.4993 40.7037 33.2109C40.7965 32.9226 40.8429 32.5795 40.8429 32.1818C40.8429 31.7808 40.7965 31.4377 40.7037 31.1527C40.6109 30.8643 40.4799 30.6423 40.3109 30.4865C40.1419 30.3307 39.9413 30.2528 39.7093 30.2528C39.4641 30.2528 39.2536 30.3307 39.0779 30.4865C38.9023 30.6423 38.7681 30.8643 38.6752 31.1527C38.5824 31.4377 38.536 31.7808 38.536 32.1818C38.536 32.5795 38.5824 32.9226 38.6752 33.2109C38.7681 33.4993 38.9023 33.7214 39.0779 33.8771C39.2536 34.0329 39.4641 34.1108 39.7093 34.1108ZM46.252 36.1591C45.8675 36.1591 45.5377 36.0249 45.2626 35.7564C44.9908 35.4846 44.8566 35.1548 44.8599 34.767C44.8566 34.3892 44.9908 34.0661 45.2626 33.7976C45.5377 33.5291 45.8675 33.3949 46.252 33.3949C46.6165 33.3949 46.938 33.5291 47.2164 33.7976C47.4982 34.0661 47.6407 34.3892 47.644 34.767C47.6407 35.0256 47.5727 35.2609 47.4402 35.473C47.3109 35.6818 47.1419 35.8492 46.9331 35.9751C46.7243 36.0978 46.4972 36.1591 46.252 36.1591ZM46.252 31.0284C45.8675 31.0284 45.5377 30.8942 45.2626 30.6257C44.9908 30.3539 44.8566 30.0241 44.8599 29.6364C44.8566 29.2585 44.9908 28.9354 45.2626 28.6669C45.5377 28.3984 45.8675 28.2642 46.252 28.2642C46.6165 28.2642 46.938 28.3984 47.2164 28.6669C47.4982 28.9354 47.6407 29.2585 47.644 29.6364C47.6407 29.8949 47.5727 30.1302 47.4402 30.3423C47.3109 30.5511 47.1419 30.7185 46.9331 30.8445C46.7243 30.9671 46.4972 31.0284 46.252 31.0284Z" fill="white"/>
<path d="M4.375 49.0227C3.60938 49.0227 2.95312 48.9134 2.40625 48.6946C1.86269 48.4792 1.4401 48.1809 1.13849 47.7997C0.840199 47.4219 0.672822 46.9877 0.636364 46.4972H3.28125C3.30777 46.6596 3.37405 46.7905 3.48011 46.8899C3.58617 46.9893 3.72206 47.0606 3.88778 47.1037C4.05682 47.1501 4.24574 47.1733 4.45455 47.1733C4.80919 47.1733 5.10251 47.0871 5.33452 46.9148C5.56984 46.7424 5.6875 46.4309 5.6875 45.9801V44.6875H5.60795C5.50852 44.946 5.35606 45.1664 5.15057 45.3487C4.94508 45.5277 4.69815 45.6652 4.4098 45.7614C4.12145 45.8542 3.80492 45.9006 3.46023 45.9006C2.91667 45.9006 2.41619 45.7746 1.95881 45.5227C1.50473 45.2708 1.14015 44.8714 0.865057 44.3246C0.593277 43.7777 0.457386 43.0634 0.457386 42.1818C0.457386 41.2604 0.599905 40.5114 0.884943 39.9347C1.1733 39.358 1.54451 38.9354 1.99858 38.6669C2.45597 38.3984 2.93655 38.2642 3.44034 38.2642C3.81818 38.2642 4.14962 38.3305 4.43466 38.4631C4.7197 38.5923 4.95833 38.7663 5.15057 38.9851C5.3428 39.2005 5.48864 39.4375 5.58807 39.696H5.64773V38.3636H8.39205V45.9801C8.39205 46.6264 8.22467 47.175 7.88992 47.6257C7.55848 48.0798 7.09115 48.4261 6.48793 48.6648C5.88471 48.9034 5.1804 49.0227 4.375 49.0227ZM4.47443 43.9517C4.72633 43.9517 4.94176 43.8821 5.12074 43.7429C5.30303 43.6004 5.44224 43.3982 5.53835 43.1364C5.63778 42.8712 5.6875 42.553 5.6875 42.1818C5.6875 41.804 5.63778 41.4808 5.53835 41.2124C5.44224 40.9406 5.30303 40.7334 5.12074 40.5909C4.94176 40.4451 4.72633 40.3722 4.47443 40.3722C4.22254 40.3722 4.0071 40.4451 3.82812 40.5909C3.65246 40.7334 3.51657 40.9406 3.42045 41.2124C3.32765 41.4808 3.28125 41.804 3.28125 42.1818C3.28125 42.5597 3.32765 42.8812 3.42045 43.1463C3.51657 43.4081 3.65246 43.6087 3.82812 43.7479C4.0071 43.8838 4.22254 43.9517 4.47443 43.9517ZM13.4469 46.1392C12.6316 46.1392 11.9289 45.9834 11.339 45.6719C10.7523 45.357 10.2999 44.9062 9.98171 44.3196C9.66684 43.7296 9.50941 43.0237 9.50941 42.2017C9.50941 41.4129 9.6685 40.7235 9.98668 40.1335C10.3049 39.5436 10.754 39.0845 11.334 38.7564C11.914 38.4283 12.5984 38.2642 13.3873 38.2642C13.964 38.2642 14.486 38.3537 14.9533 38.5327C15.4206 38.7116 15.82 38.9718 16.1515 39.3132C16.4829 39.6513 16.7381 40.0623 16.9171 40.5462C17.0961 41.0301 17.1855 41.5753 17.1855 42.1818V42.8182H10.3645V41.3068H14.66C14.6567 41.0881 14.6003 40.8958 14.4909 40.7301C14.3849 40.5611 14.2407 40.4302 14.0584 40.3374C13.8794 40.2412 13.6756 40.1932 13.4469 40.1932C13.2248 40.1932 13.021 40.2412 12.8354 40.3374C12.6498 40.4302 12.5007 40.5594 12.388 40.7251C12.2786 40.8909 12.2206 41.0848 12.214 41.3068V42.9375C12.214 43.1828 12.2653 43.4015 12.3681 43.5938C12.4708 43.786 12.6183 43.9368 12.8105 44.0462C13.0028 44.1555 13.2348 44.2102 13.5066 44.2102C13.6955 44.2102 13.8678 44.1837 14.0236 44.1307C14.1827 44.0777 14.3186 44.0014 14.4313 43.902C14.544 43.7992 14.6268 43.6766 14.6799 43.5341H17.1855C17.0994 44.0644 16.8955 44.5251 16.574 44.9162C16.2525 45.304 15.8266 45.6056 15.2963 45.821C14.7694 46.0331 14.1529 46.1392 13.4469 46.1392ZM21.0497 41.7045V46H18.3054V38.3636H20.9105V39.8153H20.9901C21.1558 39.3314 21.4474 38.9519 21.8651 38.6768C22.286 38.4018 22.7765 38.2642 23.3366 38.2642C23.8769 38.2642 24.3459 38.3885 24.7436 38.6371C25.1446 38.8823 25.4545 39.2204 25.6733 39.6513C25.8954 40.0821 26.0047 40.5743 26.0014 41.1278V46H23.2571V41.7045C23.2604 41.3267 23.1643 41.0301 22.9688 40.8146C22.7765 40.5992 22.508 40.4915 22.1634 40.4915C21.938 40.4915 21.7408 40.5412 21.5717 40.6406C21.406 40.7367 21.2784 40.8759 21.1889 41.0582C21.0994 41.2372 21.053 41.4527 21.0497 41.7045ZM31.0153 46.1392C30.1999 46.1392 29.4973 45.9834 28.9073 45.6719C28.3207 45.357 27.8683 44.9062 27.5501 44.3196C27.2352 43.7296 27.0778 43.0237 27.0778 42.2017C27.0778 41.4129 27.2369 40.7235 27.555 40.1335C27.8732 39.5436 28.3223 39.0845 28.9023 38.7564C29.4824 38.4283 30.1668 38.2642 30.9556 38.2642C31.5323 38.2642 32.0543 38.3537 32.5217 38.5327C32.989 38.7116 33.3884 38.9718 33.7198 39.3132C34.0513 39.6513 34.3065 40.0623 34.4854 40.5462C34.6644 41.0301 34.7539 41.5753 34.7539 42.1818V42.8182H27.9329V41.3068H32.2283C32.225 41.0881 32.1687 40.8958 32.0593 40.7301C31.9532 40.5611 31.8091 40.4302 31.6268 40.3374C31.4478 40.2412 31.244 40.1932 31.0153 40.1932C30.7932 40.1932 30.5894 40.2412 30.4038 40.3374C30.2182 40.4302 30.069 40.5594 29.9563 40.7251C29.8469 40.8909 29.7889 41.0848 29.7823 41.3068V42.9375C29.7823 43.1828 29.8337 43.4015 29.9364 43.5938C30.0392 43.786 30.1867 43.9368 30.3789 44.0462C30.5711 44.1555 30.8031 44.2102 31.0749 44.2102C31.2638 44.2102 31.4362 44.1837 31.592 44.1307C31.7511 44.0777 31.887 44.0014 31.9996 43.902C32.1123 43.7992 32.1952 43.6766 32.2482 43.5341H34.7539C34.6677 44.0644 34.4639 44.5251 34.1424 44.9162C33.8209 45.304 33.395 45.6056 32.8647 45.821C32.3377 46.0331 31.7212 46.1392 31.0153 46.1392ZM35.8738 46V38.3636H38.5385V39.8153H38.6181C38.7573 39.2784 38.9777 38.8857 39.2793 38.6371C39.5842 38.3885 39.9405 38.2642 40.3482 38.2642C40.4675 38.2642 40.5852 38.2741 40.7012 38.294C40.8205 38.3106 40.9348 38.3355 41.0442 38.3686V40.7102C40.9083 40.6638 40.7409 40.629 40.5421 40.6058C40.3432 40.5826 40.1725 40.571 40.03 40.571C39.7615 40.571 39.5196 40.6323 39.3042 40.755C39.092 40.8743 38.9247 41.0433 38.802 41.2621C38.6794 41.4775 38.6181 41.7311 38.6181 42.0227V46H35.8738ZM43.7164 46.1193C43.2292 46.1193 42.7984 46.0398 42.4238 45.8807C42.0526 45.7183 41.7609 45.473 41.5488 45.1449C41.3367 44.8168 41.2306 44.3991 41.2306 43.892C41.2306 43.4744 41.3019 43.1181 41.4444 42.8232C41.5869 42.5249 41.7858 42.2812 42.041 42.0923C42.2962 41.9034 42.5929 41.7592 42.9309 41.6598C43.2723 41.5604 43.6402 41.4957 44.0346 41.4659C44.4622 41.4328 44.8052 41.393 45.0637 41.3466C45.3256 41.2969 45.5145 41.2289 45.6305 41.1428C45.7465 41.0533 45.8045 40.9356 45.8045 40.7898V40.7699C45.8045 40.571 45.7283 40.4186 45.5758 40.3125C45.4234 40.2064 45.2278 40.1534 44.9892 40.1534C44.7273 40.1534 44.5136 40.2114 44.3478 40.3274C44.1854 40.4401 44.0877 40.6141 44.0545 40.8494H41.5289C41.5621 40.3854 41.7096 39.9579 41.9714 39.5668C42.2366 39.1723 42.6227 38.8575 43.1298 38.6222C43.6369 38.3835 44.2699 38.2642 45.0289 38.2642C45.5758 38.2642 46.0663 38.3288 46.5005 38.4581C46.9347 38.584 47.3043 38.7614 47.6092 38.9901C47.9141 39.2154 48.1461 39.4806 48.3052 39.7855C48.4676 40.0871 48.5488 40.4152 48.5488 40.7699V46H45.9835V44.9261H45.9238C45.7714 45.2112 45.5858 45.4415 45.367 45.6172C45.1516 45.7929 44.9047 45.9205 44.6262 46C44.3511 46.0795 44.0479 46.1193 43.7164 46.1193ZM44.6113 44.3892C44.8201 44.3892 45.0157 44.3461 45.198 44.2599C45.3836 44.1738 45.5344 44.0495 45.6504 43.8871C45.7664 43.7247 45.8244 43.5275 45.8244 43.2955V42.6591C45.7515 42.6889 45.6736 42.7171 45.5907 42.7436C45.5112 42.7701 45.425 42.795 45.3322 42.8182C45.2427 42.8414 45.1466 42.8629 45.0439 42.8828C44.9444 42.9027 44.84 42.9209 44.7306 42.9375C44.5185 42.9706 44.3445 43.0253 44.2086 43.1016C44.0761 43.1745 43.9766 43.2656 43.9103 43.375C43.8474 43.4811 43.8159 43.6004 43.8159 43.733C43.8159 43.9451 43.8904 44.1075 44.0396 44.2202C44.1887 44.3329 44.3793 44.3892 44.6113 44.3892ZM54.4141 38.3636V40.3523H49.3828V38.3636H54.4141ZM50.3572 36.5341H53.1016V43.544C53.1016 43.6501 53.1198 43.7396 53.1562 43.8125C53.1927 43.8821 53.2491 43.9351 53.3253 43.9716C53.4015 44.0047 53.4993 44.0213 53.6186 44.0213C53.7015 44.0213 53.7976 44.0114 53.907 43.9915C54.0196 43.9716 54.1025 43.955 54.1555 43.9418L54.5533 45.8707C54.4306 45.9072 54.255 45.9519 54.0263 46.005C53.8009 46.058 53.5324 46.0928 53.2209 46.1094C52.5911 46.1425 52.0625 46.0779 51.6349 45.9155C51.2074 45.7498 50.8859 45.4896 50.6705 45.1349C50.455 44.7803 50.3506 44.3362 50.3572 43.8026V36.5341ZM59.1309 46.1392C58.3023 46.1392 57.593 45.9751 57.003 45.647C56.4131 45.3156 55.9606 44.8549 55.6458 44.2649C55.3309 43.6716 55.1735 42.9839 55.1735 42.2017C55.1735 41.4195 55.3309 40.7334 55.6458 40.1435C55.9606 39.5502 56.4131 39.0895 57.003 38.7614C57.593 38.4299 58.3023 38.2642 59.1309 38.2642C59.9595 38.2642 60.6687 38.4299 61.2587 38.7614C61.8487 39.0895 62.3011 39.5502 62.6159 40.1435C62.9308 40.7334 63.0882 41.4195 63.0882 42.2017C63.0882 42.9839 62.9308 43.6716 62.6159 44.2649C62.3011 44.8549 61.8487 45.3156 61.2587 45.647C60.6687 45.9751 59.9595 46.1392 59.1309 46.1392ZM59.1507 44.1108C59.3828 44.1108 59.5833 44.0329 59.7523 43.8771C59.9213 43.7214 60.0523 43.4993 60.1451 43.2109C60.2379 42.9226 60.2843 42.5795 60.2843 42.1818C60.2843 41.7808 60.2379 41.4377 60.1451 41.1527C60.0523 40.8643 59.9213 40.6423 59.7523 40.4865C59.5833 40.3307 59.3828 40.2528 59.1507 40.2528C58.9055 40.2528 58.695 40.3307 58.5194 40.4865C58.3437 40.6423 58.2095 40.8643 58.1167 41.1527C58.0239 41.4377 57.9775 41.7808 57.9775 42.1818C57.9775 42.5795 58.0239 42.9226 58.1167 43.2109C58.2095 43.4993 58.3437 43.7214 58.5194 43.8771C58.695 44.0329 58.9055 44.1108 59.1507 44.1108ZM64.2019 46V38.3636H66.8667V39.8153H66.9462C67.0854 39.2784 67.3058 38.8857 67.6074 38.6371C67.9123 38.3885 68.2686 38.2642 68.6763 38.2642C68.7956 38.2642 68.9133 38.2741 69.0293 38.294C69.1486 38.3106 69.263 38.3355 69.3723 38.3686V40.7102C69.2364 40.6638 69.0691 40.629 68.8702 40.6058C68.6713 40.5826 68.5007 40.571 68.3581 40.571C68.0897 40.571 67.8477 40.6323 67.6323 40.755C67.4202 40.8743 67.2528 41.0433 67.1301 41.2621C67.0075 41.4775 66.9462 41.7311 66.9462 42.0227V46H64.2019Z" fill="white"/>
</svg>
